# xmcd
#
# Track frame offsets:
#	150
#	24509
#	49691
#	64999
#	110836
#	128137
#	149282
#	170099
#	195146
#
# Disc length: 2947 seconds
# Revision: 2
# Processed by: cddbd v1.5.2PL0 Copyright (c) Steve Scherf et al.
# Submitted via: dBpowerAMP V12.0
#
DISCID=7f0b8109
DTITLE=Arek Zawiliński - Blues Dziwięciu
DYEAR=2010
DGENRE=Blues
TTITLE0=Jan Zubow - Siwy Koń Apaczów
TTITLE1=Pezex - Król Grabarzy
TTITLE2=Blues Piotra Francuza - Szary Pies z Tennessee
TTITLE3=Jędrek Połonina - Kary Koń
TTITLE4=Jan Małpa - Idiańska Śmierć
TTITLE5=Witek Malarz i Jeździec z Los Muertos
TTITLE6=Marsula - Poker z Diabłem
TTITLE7=Papa Smerf - Kandelabr Śmierci
TTITLE8=Zdzichu Rados - Pojedynek
EXTD=
EXTT0=
EXTT1=
EXTT2=
EXTT3=
EXTT4=
EXTT5=
EXTT6=
EXTT7=
EXTT8=
PLAYORDER=
